<svg xmlns="http://www.w3.org/2000/svg" xmlns:xlink="http://www.w3.org/1999/xlink" width="436" height="554" viewBox="0 0 436 554">
  <defs>
    <filter id="Rectangle_17" x="0" y="0" width="436" height="554" filterUnits="userSpaceOnUse">
      <feOffset dx="6" dy="6" input="SourceAlpha"/>
      <feGaussianBlur stdDeviation="6" result="blur"/>
      <feFlood flood-opacity="0.161"/>
      <feComposite operator="in" in2="blur"/>
      <feComposite in="SourceGraphic"/>
    </filter>
    <filter id="Rectangle_20" x="3" y="6" width="418" height="108" filterUnits="userSpaceOnUse">
      <feOffset dy="3" input="SourceAlpha"/>
      <feGaussianBlur stdDeviation="3" result="blur-2"/>
      <feFlood flood-opacity="0.161"/>
      <feComposite operator="in" in2="blur-2"/>
      <feComposite in="SourceGraphic"/>
    </filter>
  </defs>
  <g id="Group_15" data-name="Group 15" transform="translate(12 11.56)">
    <g transform="matrix(1, 0, 0, 1, -12, -11.56)" filter="url(#Rectangle_17)">
      <g id="Rectangle_17-2" data-name="Rectangle 17" transform="translate(12 12)" fill="#fff" stroke="#f6ad9e" stroke-width="1">
        <rect width="400" height="518" rx="50" stroke="none"/>
        <rect x="0.5" y="0.5" width="399" height="517" rx="49.5" fill="none"/>
      </g>
    </g>
    <g transform="matrix(1, 0, 0, 1, -12, -11.56)" filter="url(#Rectangle_20)">
      <path id="Rectangle_20-2" data-name="Rectangle 20" d="M50,0H350a50,50,0,0,1,50,50V90a0,0,0,0,1,0,0H0a0,0,0,0,1,0,0V50A50,50,0,0,1,50,0Z" transform="translate(12 12)" fill="#f6ad9e"/>
    </g>
    <text id="Product_Business" data-name="Product Business" transform="translate(197 69.439)" fill="#fff" font-size="40" font-family="Perpetua-Bold, Perpetua" font-weight="700"><tspan x="-145.244" y="0">Product Business</tspan></text>
  </g>
</svg>
