<svg xmlns="http://www.w3.org/2000/svg" xmlns:xlink="http://www.w3.org/1999/xlink" width="1402" height="648" viewBox="0 0 1402 648">
  <defs>
    <filter id="Rectangle_31" x="0" y="0" width="1402" height="648" filterUnits="userSpaceOnUse">
      <feOffset dx="6" dy="6" input="SourceAlpha"/>
      <feGaussianBlur stdDeviation="6" result="blur"/>
      <feFlood flood-opacity="0.161"/>
      <feComposite operator="in" in2="blur"/>
      <feComposite in="SourceGraphic"/>
    </filter>
    <filter id="Rectangle_32" x="3" y="6" width="1384" height="108" filterUnits="userSpaceOnUse">
      <feOffset dy="3" input="SourceAlpha"/>
      <feGaussianBlur stdDeviation="3" result="blur-2"/>
      <feFlood flood-opacity="0.161"/>
      <feComposite operator="in" in2="blur-2"/>
      <feComposite in="SourceGraphic"/>
    </filter>
  </defs>
  <g id="Group_20" data-name="Group 20" transform="translate(12 12)">
    <g transform="matrix(1, 0, 0, 1, -12, -12)" filter="url(#Rectangle_31)">
      <g id="Rectangle_31-2" data-name="Rectangle 31" transform="translate(12 12)" fill="#fff" stroke="#f6ad9e" stroke-width="1">
        <rect width="1366" height="612" rx="50" stroke="none"/>
        <rect x="0.5" y="0.5" width="1365" height="611" rx="49.5" fill="none"/>
      </g>
    </g>
    <g transform="matrix(1, 0, 0, 1, -12, -12)" filter="url(#Rectangle_32)">
      <path id="Rectangle_32-2" data-name="Rectangle 32" d="M50,0H1316a50,50,0,0,1,50,50V90a0,0,0,0,1,0,0H0a0,0,0,0,1,0,0V50A50,50,0,0,1,50,0Z" transform="translate(12 12)" fill="#f6ad9e"/>
    </g>
    <text id="If_you_are_operating_from_some_market_" data-name="If you are operating
 from some market " transform="translate(494 144)" fill="#f6ad9e" font-size="40" font-family="Perpetua-Bold, Perpetua" font-weight="700"><tspan x="0" y="0">If you are operating</tspan><tspan x="0" y="46" xml:space="preserve"> from some market </tspan></text>
    <text id="If_you_are_product_is_special" data-name="If you are product 
is special" transform="translate(51 144)" fill="#f6ad9e" font-size="40" font-family="Perpetua-Bold, Perpetua" font-weight="700"><tspan x="0" y="0">If you are product </tspan><tspan x="0" y="46">is special</tspan></text>
    <text id="If_you_are_a_social_worker_organisation" data-name="If you are a social 
worker organisation" transform="translate(983 144)" fill="#f6ad9e" font-size="40" font-family="Perpetua-Bold, Perpetua" font-weight="700"><tspan x="0" y="0">If you are a social </tspan><tspan x="0" y="46">worker organisation</tspan></text>
    <text id="Special_Categories" data-name="Special Categories" transform="translate(683 55)" fill="#fff" font-size="40" font-family="Perpetua-Bold, Perpetua" font-weight="700"><tspan x="-154.141" y="0">Special Categories</tspan></text>
  </g>
</svg>
