<svg xmlns="http://www.w3.org/2000/svg" width="46" height="46" viewBox="0 0 46 46">
  <path id="iconfinder_Rounded_Twitter5_svg_5282551" d="M39.5,0A5.5,5.5,0,0,1,45,5.5v34A5.5,5.5,0,0,1,39.5,45H5.5A5.5,5.5,0,0,1,0,39.5V5.5A5.5,5.5,0,0,1,5.5,0h34ZM17.184,37.313c11.948,0,18.481-9.9,18.481-18.481,0-.283,0-.566-.013-.835A13.307,13.307,0,0,0,38.9,14.63a13.182,13.182,0,0,1-3.731,1.024,6.491,6.491,0,0,0,2.856-3.6A13.151,13.151,0,0,1,33.9,13.633a6.5,6.5,0,0,0-11.234,4.445,5.953,5.953,0,0,0,.175,1.482A18.426,18.426,0,0,1,9.453,12.771a6.492,6.492,0,0,0,2.02,8.661,6.38,6.38,0,0,1-2.936-.808v.081a6.5,6.5,0,0,0,5.213,6.371,6.474,6.474,0,0,1-1.711.229,6.2,6.2,0,0,1-1.226-.121A6.485,6.485,0,0,0,16.874,31.7a13.056,13.056,0,0,1-8.068,2.775,11.8,11.8,0,0,1-1.549-.094,18.1,18.1,0,0,0,9.927,2.936Z" transform="translate(0.5 0.5)" fill="#050505" stroke="#707070" stroke-width="1" fill-rule="evenodd"/>
</svg>
