<svg xmlns="http://www.w3.org/2000/svg" width="46" height="46" viewBox="0 0 46 46">
  <path id="iconfinder_Rounded_Linkedin2_svg_5282542" d="M39.5,0A5.5,5.5,0,0,1,45,5.5v34A5.5,5.5,0,0,1,39.5,45H5.5A5.5,5.5,0,0,1,0,39.5V5.5A5.5,5.5,0,0,1,5.5,0h34ZM14.1,37.2V17.364h-6.6V37.2Zm23.778,0V25.826c0-6.094-3.254-8.928-7.592-8.928a6.55,6.55,0,0,0-5.943,3.275V17.364H17.752c.087,1.862,0,19.838,0,19.838h6.594V26.123a4.509,4.509,0,0,1,.217-1.61A3.609,3.609,0,0,1,27.946,22.1c2.385,0,3.34,1.82,3.34,4.486V37.2h6.594ZM10.85,7.8a3.437,3.437,0,1,0-.087,6.856h.043A3.439,3.439,0,1,0,10.85,7.8Z" transform="translate(0.5 0.5)" fill="#050505" stroke="#707070" stroke-width="1" fill-rule="evenodd"/>
</svg>
